<svg width="206" height="28" viewBox="0 0 206 28" fill="none" xmlns="http://www.w3.org/2000/svg">
<path d="M184.461 15.6533V24.0915C184.461 24.9286 184.644 25.2086 185.403 25.2086C185.586 25.2086 185.889 25.2086 186.132 25.1459V27.5961C185.25 27.844 184.339 28 183.943 28C182.424 28 181.511 27.3802 181.268 26.0458C180.021 27.3175 177.742 28 175.827 28C172.726 28 170.447 26.263 170.447 23.3157C170.447 20.3683 172.179 19.1272 174.52 18.6313C175.706 18.3834 177.012 18.2288 178.471 18.0421C180.569 17.7942 181.206 17.2983 181.206 16.0573C181.206 14.6616 180.112 13.8857 177.954 13.8857C175.796 13.8857 174.641 14.8162 174.488 16.4292H171.023C171.266 12.9232 173.758 11.0943 178.165 11.0943C181.965 11.0943 184.457 12.9246 184.457 15.6547L184.461 15.6533ZM176.892 25.2072C179.263 25.2072 180.996 23.9982 180.996 22.2598V19.5298C180.054 20.119 179.598 20.1189 177.196 20.4296C174.917 20.7081 173.914 21.5467 173.914 23.0037C173.914 24.3381 175.008 25.2058 176.892 25.2058V25.2072Z" fill="#FFFBFF"/>
<path d="M192.929 11.8868V28H189.53V11.8868H192.929Z" fill="#FFFBFF"/>
<path d="M165.349 28C166.576 28 167.571 26.9356 167.571 25.6226C167.571 24.3097 166.576 23.2453 165.349 23.2453C164.122 23.2453 163.127 24.3097 163.127 25.6226C163.127 26.9356 164.122 28 165.349 28Z" fill="#FFFBFF"/>
<path d="M37.695 8.84361H30.7988V5.67322H48.2281V8.84361H41.3305V27.6476H37.695V8.84361ZM50.8993 24.983C50.8993 25.7763 51.1414 26.4231 51.6242 26.9109C52.1194 27.3988 52.7595 27.6434 53.5692 27.6434H66.8432V24.4827H54.5348V18.0148H50.8993V24.983ZM66.8432 8.84776V5.67461H50.8993V14.8029H54.5348V8.84776H66.8432ZM65.9008 18.0134V14.8043H54.5348V18.0134H65.9008ZM72.9885 26.8792C71.8287 26.1992 70.9273 25.2359 70.2859 23.9907C69.643 22.7455 69.323 21.3068 69.323 19.6746V13.6462C69.323 12.014 69.6485 10.5753 70.3009 9.33009C70.9533 8.08487 71.8697 7.1216 73.0515 6.44163C74.2318 5.76167 75.5996 5.42169 77.152 5.42169H80.4455C81.9159 5.42169 83.2207 5.74094 84.36 6.37944C85.4994 7.01794 86.3802 7.91765 87.0012 9.07994C87.6221 10.2408 87.9326 11.5856 87.9326 13.1141H84.36C84.36 11.7749 83.9976 10.6969 83.2727 9.88014C82.5478 9.06335 81.6054 8.65565 80.4455 8.65565H77.152C75.8882 8.65565 74.8733 9.12693 74.1074 10.0681C73.3401 11.0093 72.9571 12.2448 72.9571 13.7719V19.5489C72.9571 21.0981 73.3305 22.3378 74.0759 23.2693C74.8213 24.2008 75.8047 24.6665 77.0275 24.6665H80.3826C81.5835 24.6665 82.5587 24.2063 83.3028 23.2859C84.0482 22.3641 84.4216 21.1727 84.4216 19.7064H87.9942C87.9942 21.3386 87.6782 22.7718 87.0463 24.0073C86.4144 25.2414 85.524 26.1992 84.3751 26.8792C83.2248 27.5591 81.894 27.8991 80.3826 27.8991H77.0275C75.4943 27.8991 74.1484 27.5591 72.9872 26.8792H72.9885ZM91.0401 5.67322H94.6756V14.9978H105.426V5.67322H109.03V27.649H105.426V18.2H94.6756V27.649H91.0401V5.67322ZM128.817 7.22525C127.706 6.18734 126.232 5.67599 124.409 5.67599H113.248V18.7569H116.884V8.87402H124.348C125.108 8.87402 125.725 9.1062 126.183 9.56918C126.63 10.0211 126.859 10.643 126.859 11.4239V14.2059C126.859 15.0476 126.606 15.7317 126.098 16.2555C125.591 16.7806 124.914 17.0363 124.069 17.0363H113.247V27.642H116.882V20.2343H124.129C126.037 20.2343 127.571 19.6981 128.742 18.6229C129.914 17.549 130.493 16.1214 130.493 14.3386V11.3244C130.493 9.62861 129.938 8.26039 128.815 7.22387L128.817 7.22525ZM143.794 22.2176H135.157L133.137 27.6476H129.377L137.828 5.67184H139.475C140.594 5.67184 141.371 6.22742 141.806 7.33581L149.573 27.6476H145.783L143.794 22.2176ZM136.183 19.1398H142.77L139.508 10.2243H139.476L136.184 19.1398H136.183ZM154.887 19.1398L146.84 5.67184H150.785L156.688 15.78L162.591 5.67184H166.537L158.491 19.1398V27.6476H154.887V19.1398Z" fill="#FFFBFF"/>
<path d="M9.20361 5.54331H0V14.5611H9.20361V5.54331Z" fill="#DB82B6"/>
<path d="M16.7919 5.54333H16.5142C14.0494 5.54333 12.0513 7.56203 12.0513 10.0522C12.0513 12.5424 14.0494 14.5611 16.5142 14.5611H16.7919C19.2567 14.5611 21.2549 12.5424 21.2549 10.0522C21.2549 7.56203 19.2567 5.54333 16.7919 5.54333Z" fill="#F26422"/>
<path d="M12.0527 26.9621H21.2563V17.9443H12.0527L12.0527 26.9621Z" fill="#ED1D5F"/>
<path d="M4.46298 26.9621H4.74063C7.20547 26.9621 9.20361 24.9434 9.20361 22.4532C9.20361 19.963 7.20547 17.9443 4.74063 17.9443H4.46298C1.99815 17.9443 9.53674e-07 19.963 9.53674e-07 22.4532C9.53674e-07 24.9434 1.99815 26.9621 4.46298 26.9621Z" fill="#93268F"/>
<path d="M193.452 7.79245C193.452 6.55242 192.398 5.54717 191.099 5.54717C189.799 5.54717 188.746 6.55242 188.746 7.79245C188.746 9.03249 189.799 10.0377 191.099 10.0377C192.398 10.0377 193.452 9.03249 193.452 7.79245Z" fill="#FFFBFF"/>
<path d="M200.325 3.3044V3.96363H199.268V6.87005H198.492V3.96363H197.435V3.3044H200.325Z" fill="#FFFBFF"/>
<path d="M201.991 3.30443L202.816 5.75616H202.825L203.606 3.30443H204.698V6.8687H203.971V4.34234H203.962L203.097 6.8687H202.5L201.635 4.36721H201.626V6.8687H200.899V3.30443H201.991Z" fill="#FFFBFF"/>
<path d="M201.033 0C198.29 0 196.066 2.24715 196.066 5.01887C196.066 7.79058 198.29 10.0377 201.033 10.0377C203.776 10.0377 206 7.79058 206 5.01887C206 2.24715 203.776 0 201.033 0ZM205.504 5.01887C205.504 7.51369 203.502 9.53682 201.033 9.53682C198.564 9.53682 196.562 7.51369 196.562 5.01887C196.562 2.52404 198.564 0.500914 201.033 0.500914C203.502 0.500914 205.504 2.52404 205.504 5.01887Z" fill="#FFFBFF"/>
</svg>
